custom-analysis
version=1
nRows=4
nColumns=98
inDegrees=no

This file contains tibia displacement and acting force.

Units are S.I. units (seconds, meters, Newtons, ...)
Angles are in degrees.

endheader
time	APT	SIT	knee_angle	aACL_R_force	pACL_R_force	aPCL_R_force	pPCL_R_force	aMCL_R_force	mMCL_R_force	pMCL_R_force	aLCL_R_force	mLCL_R_force	pLCL_R_force	aPCL_L_force	pPCL_L_force	aMCL_L_force	aLCL_L_force	aACL_R_length	pACL_R_length	aPCL_R_length	pPCL_R_length	aMCL_R_length	mMCL_R_length	pMCL_R_length	aLCL_R_length	mLCL_R_length	pLCL_R_length	aPCL_L_length	pPCL_L_length	aMCL_L_length	aLCL_L_length	aACL_R_strain	pACL_R_strain	aPCL_R_strain	pPCL_R_strain	aMCL_R_strain	mMCL_R_strain	pMCL_R_strain	aLCL_R_strain	mLCL_R_strain	pLCL_R_strain	aPCL_L_strain	pPCL_L_strain	aMCL_L_strain	aLCL_L_strain	femur_lat_meniscii_r.femur_lat_r.force.X	femur_lat_meniscii_r.femur_lat_r.force.Y	femur_lat_meniscii_r.femur_lat_r.force.Z	femur_lat_meniscii_r.femur_lat_r.torque.X	femur_lat_meniscii_r.femur_lat_r.torque.Y	femur_lat_meniscii_r.femur_lat_r.torque.Z	femur_lat_meniscii_r.meniscus_lat_r.force.X	femur_lat_meniscii_r.meniscus_lat_r.force.Y	femur_lat_meniscii_r.meniscus_lat_r.force.Z	femur_lat_meniscii_r.meniscus_lat_r.torque.X	femur_lat_meniscii_r.meniscus_lat_r.torque.Y	femur_lat_meniscii_r.meniscus_lat_r.torque.Z	femur_med_meniscii_r.femur_med_r.force.X	femur_med_meniscii_r.femur_med_r.force.Y	femur_med_meniscii_r.femur_med_r.force.Z	femur_med_meniscii_r.femur_med_r.torque.X	femur_med_meniscii_r.femur_med_r.torque.Y	femur_med_meniscii_r.femur_med_r.torque.Z	femur_med_meniscii_r.meniscus_med_r.force.X	femur_med_meniscii_r.meniscus_med_r.force.Y	femur_med_meniscii_r.meniscus_med_r.force.Z	femur_med_meniscii_r.meniscus_med_r.torque.X	femur_med_meniscii_r.meniscus_med_r.torque.Y	femur_med_meniscii_r.meniscus_med_r.torque.Z	femur_med_tibia_r.tibia_upper_r.force.X	femur_med_tibia_r.tibia_upper_r.force.Y	femur_med_tibia_r.tibia_upper_r.force.Z	femur_med_tibia_r.tibia_upper_r.torque.X	femur_med_tibia_r.tibia_upper_r.torque.Y	femur_med_tibia_r.tibia_upper_r.torque.Z	femur_med_tibia_r.femur_med_r.force.X	femur_med_tibia_r.femur_med_r.force.Y	femur_med_tibia_r.femur_med_r.force.Z	femur_med_tibia_r.femur_med_r.torque.X	femur_med_tibia_r.femur_med_r.torque.Y	femur_med_tibia_r.femur_med_r.torque.Z	femur_lat_tibia_r.tibia_upper_r.force.X	femur_lat_tibia_r.tibia_upper_r.force.Y	femur_lat_tibia_r.tibia_upper_r.force.Z	femur_lat_tibia_r.tibia_upper_r.torque.X	femur_lat_tibia_r.tibia_upper_r.torque.Y	femur_lat_tibia_r.tibia_upper_r.torque.Z	femur_lat_tibia_r.femur_lat_r.force.X	femur_lat_tibia_r.femur_lat_r.force.Y	femur_lat_tibia_r.femur_lat_r.force.Z	femur_lat_tibia_r.femur_lat_r.torque.X	femur_lat_tibia_r.femur_lat_r.torque.Y	femur_lat_tibia_r.femur_lat_r.torque.Z	femur_lat_meniscii_force_r	femur_med_meniscii_force_r	femur_lat_tibia_force_r	femur_med_tibia_force_r
      0.13898905	      0.00923427	      0.01065762	     40.96291640	     18.42134915	      9.86481955	    492.96999605	    343.38756199	      0.00000000	      0.00000000	      0.00000000	      1.78981002	      0.00000000	      0.00000000	      0.00000000	      0.00000000	      0.00000001	      0.00000000	      0.03203487	      0.02537040	      0.03446478	      0.03219913	      0.05790356	      0.05866356	      0.05662873	      0.05627411	      0.05226367	      0.04805077	      0.01525851	      0.01651186	      0.06550154	      0.04489616	      0.03319947	      0.01243888	      0.10835968	      0.07733361	     -0.03537476	     -0.01889733	     -0.03574557	      0.00530404	     -0.07199987	     -0.08199676	      0.00000079	     -0.32847694	      0.00000060	     -0.00000086	    394.97409355	    383.02171317	     54.52624773	    -31.44038823	      9.84360688	    158.87230574	   -394.97409355	   -383.02171317	    -54.52624773	     11.80225088	    -11.83811247	     -2.60821639	    429.24071661	    564.83383597	     -0.68368858	     12.49046046	     -8.75977124	    170.42290707	   -429.24071661	   -564.83383597	      0.68368858	    -10.39685979	      7.37666620	      1.34261850	    -33.45513856	   -201.99647942	     75.88441095	     -5.01639667	      1.69086660	      2.30821462	     33.45513856	    201.99647942	    -75.88441095	     34.73068372	     -0.80626873	     13.14662296	      0.00000000	      0.00000000	      0.00000000	      0.00000000	      0.00000000	      0.00000000	      0.00000000	      0.00000000	      0.00000000	      0.00000000	      0.00000000	      0.00000000	    552.88631655	    709.42605146	      0.00000000	    218.35811829
      0.13951136	      0.00928722	      0.01073455	     41.21015239	     18.31854321	      9.74982610	    498.37151871	    345.99728243	      0.00000000	      0.00000000	      0.00000000	      1.12729914	      0.00000000	      0.00000000	      0.00000000	      0.00000000	      0.00000001	      0.00000000	      0.03204815	      0.02538147	      0.03449635	      0.03221905	      0.05791961	      0.05865829	      0.05660381	      0.05627483	      0.05225188	      0.04802720	      0.01525851	      0.01651186	      0.06550154	      0.04489616	      0.03362792	      0.01288070	      0.10937497	      0.07800002	     -0.03510736	     -0.01898550	     -0.03616992	      0.00531707	     -0.07220910	     -0.08244704	      0.00000079	     -0.32847694	      0.00000060	     -0.00000086	    391.09616428	    383.72427192	     54.46001568	    -31.42378918	      9.74775496	    157.23197943	   -391.09616428	   -383.72427192	    -54.46001568	     11.80323491	    -11.72581781	     -2.39261446	    431.75139307	    572.82402056	      0.20768645	     12.32630784	     -8.83099263	    171.33755697	   -431.75139307	   -572.82402056	     -0.20768645	    -10.56026688	      7.43719611	      1.56483961	    -34.40570755	   -204.29244371	     76.69976474	     -5.06316770	      1.72871034	      2.35153284	     34.40570755	    204.29244371	    -76.69976474	     35.09553935	     -0.82836562	     13.51838051	      0.00000000	      0.00000000	      0.00000000	      0.00000000	      0.00000000	      0.00000000	      0.00000000	      0.00000000	      0.00000000	      0.00000000	      0.00000000	      0.00000000	    550.60550296	    717.31211274	      0.00000000	    220.91176786
      0.14003367	      0.00933991	      0.01081210	     41.45759753	     18.41934422	      9.79361327	    503.67860770	    348.48718886	      0.00000000	      0.00000000	      0.00000000	      0.62797485	      0.00000000	      0.00000000	      0.00000000	      0.00000000	      0.00000001	      0.00000000	      0.03206129	      0.02539250	      0.03452757	      0.03223864	      0.05793520	      0.05865261	      0.05657858	      0.05627525	      0.05223981	      0.04800337	      0.01525851	      0.01651186	      0.06550154	      0.04489616	      0.03405162	      0.01332083	      0.11037916	      0.07865544	     -0.03484773	     -0.01908054	     -0.03659956	      0.00532449	     -0.07242356	     -0.08290227	      0.00000079	     -0.32847694	      0.00000060	     -0.00000086	    388.16400318	    383.16601343	     54.51008295	    -31.42495462	      9.67574153	    155.99832376	   -388.16400318	   -383.16601343	    -54.51008295	     11.77342680	    -11.64215870	     -2.23814795	    437.36296635	    569.82101510	      0.35365015	     12.26816836	     -8.97317680	    173.63193442	   -437.36296635	   -569.82101510	     -0.35365015	    -10.57968135	      7.56852557	      1.45097203	    -36.14792378	   -206.99645312	     77.44029992	     -5.11158932	      1.77214838	      2.37444417	     36.14792378	    206.99645312	    -77.44029992	     35.43471022	     -0.85937638	     14.21973780	      0.00000000	      0.00000000	      0.00000000	      0.00000000	      0.00000000	      0.00000000	      0.00000000	      0.00000000	      0.00000000	      0.00000000	      0.00000000	      0.00000000	    548.14125585	    718.31920387	      0.00000000	    223.94464506
      0.14030222	      0.00936678	      0.01085223	     41.58488200	     18.37855120	      9.74549257	    506.40218074	    349.79459262	      0.00000000	      0.00000000	      0.00000000	      0.26769204	      0.00000000	      0.00000000	      0.00000000	      0.00000000	      0.00000001	      0.00000000	      0.03206792	      0.02539810	      0.03454353	      0.03224862	      0.05794300	      0.05864951	      0.05656547	      0.05627534	      0.05223348	      0.04799102	      0.01525851	      0.01651186	      0.06550154	      0.04489616	      0.03426541	      0.01354423	      0.11089239	      0.07898955	     -0.03471765	     -0.01913234	     -0.03682273	      0.00532604	     -0.07253594	     -0.08313826	      0.00000079	     -0.32847694	      0.00000060	     -0.00000086	    387.49360270	    381.76946940	     54.19578959	    -31.26200024	      9.65265367	    155.72301758	   -387.49360270	   -381.76946940	    -54.19578959	     11.72127039	    -11.61128472	     -2.21195311	    438.47370406	    568.04329958	      1.77239285	     11.70067611	     -9.00548931	    174.07974098	   -438.47370406	   -568.04329958	     -1.77239285	    -10.56742248	      7.58307243	      1.44142798	    -36.72367654	   -208.81347887	     78.06022099	     -5.14979498	      1.79608434	      2.40600185	     36.72367654	    208.81347887	    -78.06022099	     35.71536139	     -0.87263010	     14.44393337	      0.00000000	      0.00000000	      0.00000000	      0.00000000	      0.00000000	      0.00000000	      0.00000000	      0.00000000	      0.00000000	      0.00000000	      0.00000000	      0.00000000	    546.65931210	    717.59007848	      0.00000000	    225.93161682
